<mxfile host="app.diagrams.net" modified="2024-05-27T15:01:04.718Z" agent="Mozilla/5.0 (X11; Linux x86_64) AppleWebKit/537.36 (KHTML, like Gecko) Chrome/124.0.0.0 Safari/537.36" etag="brkYQ5VVEwVuLPXUU7bf" version="24.4.9" type="device">
  <diagram name="Seite-1" id="E-DoitbHutwgvBX5m-sC">
    <mxGraphModel dx="715" dy="850" grid="1" gridSize="10" guides="1" tooltips="1" connect="1" arrows="1" fold="1" page="1" pageScale="1" pageWidth="827" pageHeight="1169" math="0" shadow="0">
      <root>
        <mxCell id="0" />
        <mxCell id="1" parent="0" />
        <mxCell id="Mb5zyB3T2CtG6zJr2Mxs-84" value="" style="rounded=0;whiteSpace=wrap;html=1;fillColor=#dae8fc;strokeColor=#6c8ebf;fontFamily=Inter;fontSource=https%3A%2F%2Ffonts.googleapis.com%2Fcss%3Ffamily%3DInter;" parent="1" vertex="1">
          <mxGeometry x="870" y="850" width="740" height="480" as="geometry" />
        </mxCell>
        <mxCell id="9ROWvACtDVGKVb09vTlz-33" value="" style="rounded=0;whiteSpace=wrap;html=1;fillColor=#e1d5e7;strokeColor=#9673a6;fontFamily=Inter;fontSource=https%3A%2F%2Ffonts.googleapis.com%2Fcss%3Ffamily%3DInter;" vertex="1" parent="1">
          <mxGeometry x="1140" y="870" width="270" height="380" as="geometry" />
        </mxCell>
        <mxCell id="9ROWvACtDVGKVb09vTlz-24" value="" style="rounded=0;whiteSpace=wrap;html=1;fillColor=#dae8fc;strokeColor=#6c8ebf;fontFamily=Inter;fontSource=https%3A%2F%2Ffonts.googleapis.com%2Fcss%3Ffamily%3DInter;" vertex="1" parent="1">
          <mxGeometry x="870.5" y="590" width="739.5" height="100" as="geometry" />
        </mxCell>
        <mxCell id="9ROWvACtDVGKVb09vTlz-18" value="" style="rounded=0;whiteSpace=wrap;html=1;fillColor=#d5e8d4;strokeColor=#82b366;" vertex="1" parent="1">
          <mxGeometry x="870.5" y="760" width="740" height="60" as="geometry" />
        </mxCell>
        <mxCell id="9ROWvACtDVGKVb09vTlz-19" value="&lt;span style=&quot;font-size: 16px;&quot;&gt;Logic you want to implement&lt;/span&gt;" style="text;html=1;align=left;verticalAlign=middle;whiteSpace=wrap;rounded=0;" vertex="1" parent="1">
          <mxGeometry x="890" y="770" width="160" height="40" as="geometry" />
        </mxCell>
        <mxCell id="9ROWvACtDVGKVb09vTlz-17" value="" style="rounded=0;whiteSpace=wrap;html=1;fillColor=#d5e8d4;strokeColor=#82b366;" vertex="1" parent="1">
          <mxGeometry x="870" y="110" width="740" height="60" as="geometry" />
        </mxCell>
        <mxCell id="9ROWvACtDVGKVb09vTlz-16" value="" style="rounded=0;whiteSpace=wrap;html=1;fillColor=#f8cecc;strokeColor=#b85450;" vertex="1" parent="1">
          <mxGeometry x="870" y="190" width="740" height="380" as="geometry" />
        </mxCell>
        <mxCell id="9ROWvACtDVGKVb09vTlz-27" style="edgeStyle=orthogonalEdgeStyle;rounded=0;orthogonalLoop=1;jettySize=auto;html=1;exitX=0.5;exitY=1;exitDx=0;exitDy=0;entryX=0.5;entryY=0;entryDx=0;entryDy=0;strokeColor=#FFFFFF;strokeWidth=3;" edge="1" parent="1" source="Mb5zyB3T2CtG6zJr2Mxs-30" target="Mb5zyB3T2CtG6zJr2Mxs-122">
          <mxGeometry relative="1" as="geometry" />
        </mxCell>
        <mxCell id="Mb5zyB3T2CtG6zJr2Mxs-30" value="Auth" style="rounded=0;whiteSpace=wrap;html=1;fillColor=#f8cecc;strokeColor=#b85450;fontFamily=Inter;fontSource=https%3A%2F%2Ffonts.googleapis.com%2Fcss%3Ffamily%3DInter;" parent="1" vertex="1">
          <mxGeometry x="1080" y="520" width="120" height="40" as="geometry" />
        </mxCell>
        <mxCell id="Mb5zyB3T2CtG6zJr2Mxs-31" value="Serving Files" style="rounded=0;whiteSpace=wrap;html=1;fillColor=#f8cecc;strokeColor=#b85450;fontFamily=Inter;fontSource=https%3A%2F%2Ffonts.googleapis.com%2Fcss%3Ffamily%3DInter;" parent="1" vertex="1">
          <mxGeometry x="1080" y="480" width="120" height="40" as="geometry" />
        </mxCell>
        <mxCell id="Mb5zyB3T2CtG6zJr2Mxs-32" value="File Search" style="rounded=0;whiteSpace=wrap;html=1;fillColor=#f8cecc;strokeColor=#b85450;fontFamily=Inter;fontSource=https%3A%2F%2Ffonts.googleapis.com%2Fcss%3Ffamily%3DInter;" parent="1" vertex="1">
          <mxGeometry x="1080" y="440" width="120" height="40" as="geometry" />
        </mxCell>
        <mxCell id="Mb5zyB3T2CtG6zJr2Mxs-33" value="Converting files" style="rounded=0;whiteSpace=wrap;html=1;fillColor=#f8cecc;strokeColor=#b85450;fontFamily=Inter;fontSource=https%3A%2F%2Ffonts.googleapis.com%2Fcss%3Ffamily%3DInter;" parent="1" vertex="1">
          <mxGeometry x="1080" y="400" width="120" height="40" as="geometry" />
        </mxCell>
        <mxCell id="Mb5zyB3T2CtG6zJr2Mxs-34" value="Offline features" style="rounded=0;whiteSpace=wrap;html=1;fillColor=#f8cecc;strokeColor=#b85450;fontFamily=Inter;fontSource=https%3A%2F%2Ffonts.googleapis.com%2Fcss%3Ffamily%3DInter;" parent="1" vertex="1">
          <mxGeometry x="1080" y="360" width="120" height="40" as="geometry" />
        </mxCell>
        <mxCell id="Mb5zyB3T2CtG6zJr2Mxs-35" value="Efficient image loading" style="rounded=0;whiteSpace=wrap;html=1;fillColor=#f8cecc;strokeColor=#b85450;fontFamily=Inter;fontSource=https%3A%2F%2Ffonts.googleapis.com%2Fcss%3Ffamily%3DInter;" parent="1" vertex="1">
          <mxGeometry x="1080" y="320" width="120" height="40" as="geometry" />
        </mxCell>
        <mxCell id="Mb5zyB3T2CtG6zJr2Mxs-37" value="Handling large file lists in the browser" style="rounded=0;whiteSpace=wrap;html=1;fillColor=#f8cecc;strokeColor=#b85450;fontFamily=Inter;fontSource=https%3A%2F%2Ffonts.googleapis.com%2Fcss%3Ffamily%3DInter;" parent="1" vertex="1">
          <mxGeometry x="1080" y="280" width="120" height="40" as="geometry" />
        </mxCell>
        <mxCell id="Mb5zyB3T2CtG6zJr2Mxs-38" value="Metadata Extraction" style="rounded=0;whiteSpace=wrap;html=1;fillColor=#f8cecc;strokeColor=#b85450;fontFamily=Inter;fontSource=https%3A%2F%2Ffonts.googleapis.com%2Fcss%3Ffamily%3DInter;" parent="1" vertex="1">
          <mxGeometry x="1080" y="240" width="120" height="40" as="geometry" />
        </mxCell>
        <mxCell id="Mb5zyB3T2CtG6zJr2Mxs-114" style="edgeStyle=orthogonalEdgeStyle;rounded=0;orthogonalLoop=1;jettySize=auto;html=1;exitX=0.5;exitY=1;exitDx=0;exitDy=0;entryX=0.5;entryY=0;entryDx=0;entryDy=0;fontFamily=Inter;fontSource=https%3A%2F%2Ffonts.googleapis.com%2Fcss%3Ffamily%3DInter;fontColor=#FFFFFF;strokeColor=#FFFFFF;strokeWidth=3;" parent="1" source="Mb5zyB3T2CtG6zJr2Mxs-39" target="9ROWvACtDVGKVb09vTlz-5" edge="1">
          <mxGeometry relative="1" as="geometry" />
        </mxCell>
        <mxCell id="Mb5zyB3T2CtG6zJr2Mxs-39" value="Photo Mangement App" style="rounded=0;whiteSpace=wrap;html=1;fillColor=#d5e8d4;strokeColor=#82b366;fontFamily=Inter;fontSource=https%3A%2F%2Ffonts.googleapis.com%2Fcss%3Ffamily%3DInter;" parent="1" vertex="1">
          <mxGeometry x="1080" y="120" width="120" height="40" as="geometry" />
        </mxCell>
        <mxCell id="9ROWvACtDVGKVb09vTlz-28" style="edgeStyle=orthogonalEdgeStyle;rounded=0;orthogonalLoop=1;jettySize=auto;html=1;exitX=0.5;exitY=1;exitDx=0;exitDy=0;entryX=0.5;entryY=0;entryDx=0;entryDy=0;strokeColor=#FFFFFF;strokeWidth=3;" edge="1" parent="1" source="Mb5zyB3T2CtG6zJr2Mxs-40" target="Mb5zyB3T2CtG6zJr2Mxs-121">
          <mxGeometry relative="1" as="geometry" />
        </mxCell>
        <mxCell id="Mb5zyB3T2CtG6zJr2Mxs-40" value="Auth" style="rounded=0;whiteSpace=wrap;html=1;fillColor=#f8cecc;strokeColor=#b85450;fontFamily=Inter;fontSource=https%3A%2F%2Ffonts.googleapis.com%2Fcss%3Ffamily%3DInter;" parent="1" vertex="1">
          <mxGeometry x="1280" y="520" width="120" height="40" as="geometry" />
        </mxCell>
        <mxCell id="Mb5zyB3T2CtG6zJr2Mxs-41" value="Serving Files" style="rounded=0;whiteSpace=wrap;html=1;fillColor=#f8cecc;strokeColor=#b85450;fontFamily=Inter;fontSource=https%3A%2F%2Ffonts.googleapis.com%2Fcss%3Ffamily%3DInter;" parent="1" vertex="1">
          <mxGeometry x="1280" y="480" width="120" height="40" as="geometry" />
        </mxCell>
        <mxCell id="Mb5zyB3T2CtG6zJr2Mxs-42" value="File Search" style="rounded=0;whiteSpace=wrap;html=1;fillColor=#f8cecc;strokeColor=#b85450;fontFamily=Inter;fontSource=https%3A%2F%2Ffonts.googleapis.com%2Fcss%3Ffamily%3DInter;" parent="1" vertex="1">
          <mxGeometry x="1280" y="440" width="120" height="40" as="geometry" />
        </mxCell>
        <mxCell id="Mb5zyB3T2CtG6zJr2Mxs-43" value="Converting files" style="rounded=0;whiteSpace=wrap;html=1;fillColor=#f8cecc;strokeColor=#b85450;fontFamily=Inter;fontSource=https%3A%2F%2Ffonts.googleapis.com%2Fcss%3Ffamily%3DInter;" parent="1" vertex="1">
          <mxGeometry x="1280" y="400" width="120" height="40" as="geometry" />
        </mxCell>
        <mxCell id="Mb5zyB3T2CtG6zJr2Mxs-44" value="Offline features" style="rounded=0;whiteSpace=wrap;html=1;fillColor=#f8cecc;strokeColor=#b85450;fontFamily=Inter;fontSource=https%3A%2F%2Ffonts.googleapis.com%2Fcss%3Ffamily%3DInter;" parent="1" vertex="1">
          <mxGeometry x="1280" y="360" width="120" height="40" as="geometry" />
        </mxCell>
        <mxCell id="Mb5zyB3T2CtG6zJr2Mxs-45" value="Efficient image loading" style="rounded=0;whiteSpace=wrap;html=1;fillColor=#f8cecc;strokeColor=#b85450;fontFamily=Inter;fontSource=https%3A%2F%2Ffonts.googleapis.com%2Fcss%3Ffamily%3DInter;" parent="1" vertex="1">
          <mxGeometry x="1280" y="320" width="120" height="40" as="geometry" />
        </mxCell>
        <mxCell id="Mb5zyB3T2CtG6zJr2Mxs-46" value="Handling large file lists in the browser" style="rounded=0;whiteSpace=wrap;html=1;fillColor=#f8cecc;strokeColor=#b85450;fontFamily=Inter;fontSource=https%3A%2F%2Ffonts.googleapis.com%2Fcss%3Ffamily%3DInter;" parent="1" vertex="1">
          <mxGeometry x="1280" y="280" width="120" height="40" as="geometry" />
        </mxCell>
        <mxCell id="Mb5zyB3T2CtG6zJr2Mxs-47" value="Metadata Extraction" style="rounded=0;whiteSpace=wrap;html=1;fillColor=#f8cecc;strokeColor=#b85450;fontFamily=Inter;fontSource=https%3A%2F%2Ffonts.googleapis.com%2Fcss%3Ffamily%3DInter;" parent="1" vertex="1">
          <mxGeometry x="1280" y="240" width="120" height="40" as="geometry" />
        </mxCell>
        <mxCell id="Mb5zyB3T2CtG6zJr2Mxs-115" style="edgeStyle=orthogonalEdgeStyle;rounded=0;orthogonalLoop=1;jettySize=auto;html=1;exitX=0.5;exitY=1;exitDx=0;exitDy=0;entryX=0.5;entryY=0;entryDx=0;entryDy=0;fontFamily=Inter;fontSource=https%3A%2F%2Ffonts.googleapis.com%2Fcss%3Ffamily%3DInter;fontColor=#FFFFFF;strokeColor=#FFFFFF;strokeWidth=3;" parent="1" source="Mb5zyB3T2CtG6zJr2Mxs-48" target="9ROWvACtDVGKVb09vTlz-7" edge="1">
          <mxGeometry relative="1" as="geometry" />
        </mxCell>
        <mxCell id="Mb5zyB3T2CtG6zJr2Mxs-48" value="Video Streaming App" style="rounded=0;whiteSpace=wrap;html=1;fillColor=#d5e8d4;strokeColor=#82b366;fontFamily=Inter;fontSource=https%3A%2F%2Ffonts.googleapis.com%2Fcss%3Ffamily%3DInter;" parent="1" vertex="1">
          <mxGeometry x="1280" y="120" width="120" height="40" as="geometry" />
        </mxCell>
        <mxCell id="9ROWvACtDVGKVb09vTlz-29" style="edgeStyle=orthogonalEdgeStyle;rounded=0;orthogonalLoop=1;jettySize=auto;html=1;exitX=0.5;exitY=1;exitDx=0;exitDy=0;entryX=0.5;entryY=0;entryDx=0;entryDy=0;strokeColor=#FFFFFF;strokeWidth=3;" edge="1" parent="1" source="Mb5zyB3T2CtG6zJr2Mxs-49" target="Mb5zyB3T2CtG6zJr2Mxs-120">
          <mxGeometry relative="1" as="geometry" />
        </mxCell>
        <mxCell id="Mb5zyB3T2CtG6zJr2Mxs-49" value="Auth" style="rounded=0;whiteSpace=wrap;html=1;fillColor=#f8cecc;strokeColor=#b85450;fontFamily=Inter;fontSource=https%3A%2F%2Ffonts.googleapis.com%2Fcss%3Ffamily%3DInter;" parent="1" vertex="1">
          <mxGeometry x="1480" y="520" width="120" height="40" as="geometry" />
        </mxCell>
        <mxCell id="Mb5zyB3T2CtG6zJr2Mxs-50" value="Serving Files" style="rounded=0;whiteSpace=wrap;html=1;fillColor=#f8cecc;strokeColor=#b85450;fontFamily=Inter;fontSource=https%3A%2F%2Ffonts.googleapis.com%2Fcss%3Ffamily%3DInter;" parent="1" vertex="1">
          <mxGeometry x="1480" y="480" width="120" height="40" as="geometry" />
        </mxCell>
        <mxCell id="Mb5zyB3T2CtG6zJr2Mxs-51" value="File Search" style="rounded=0;whiteSpace=wrap;html=1;fillColor=#f8cecc;strokeColor=#b85450;fontFamily=Inter;fontSource=https%3A%2F%2Ffonts.googleapis.com%2Fcss%3Ffamily%3DInter;" parent="1" vertex="1">
          <mxGeometry x="1480" y="440" width="120" height="40" as="geometry" />
        </mxCell>
        <mxCell id="Mb5zyB3T2CtG6zJr2Mxs-52" value="Converting files" style="rounded=0;whiteSpace=wrap;html=1;fillColor=#f8cecc;strokeColor=#b85450;fontFamily=Inter;fontSource=https%3A%2F%2Ffonts.googleapis.com%2Fcss%3Ffamily%3DInter;" parent="1" vertex="1">
          <mxGeometry x="1480" y="400" width="120" height="40" as="geometry" />
        </mxCell>
        <mxCell id="Mb5zyB3T2CtG6zJr2Mxs-53" value="Offline features" style="rounded=0;whiteSpace=wrap;html=1;fillColor=#f8cecc;strokeColor=#b85450;fontFamily=Inter;fontSource=https%3A%2F%2Ffonts.googleapis.com%2Fcss%3Ffamily%3DInter;" parent="1" vertex="1">
          <mxGeometry x="1480" y="360" width="120" height="40" as="geometry" />
        </mxCell>
        <mxCell id="Mb5zyB3T2CtG6zJr2Mxs-54" value="Efficient image loading" style="rounded=0;whiteSpace=wrap;html=1;fillColor=#f8cecc;strokeColor=#b85450;fontFamily=Inter;fontSource=https%3A%2F%2Ffonts.googleapis.com%2Fcss%3Ffamily%3DInter;" parent="1" vertex="1">
          <mxGeometry x="1480" y="320" width="120" height="40" as="geometry" />
        </mxCell>
        <mxCell id="Mb5zyB3T2CtG6zJr2Mxs-55" value="Handling large file lists in the browser" style="rounded=0;whiteSpace=wrap;html=1;fillColor=#f8cecc;strokeColor=#b85450;fontFamily=Inter;fontSource=https%3A%2F%2Ffonts.googleapis.com%2Fcss%3Ffamily%3DInter;" parent="1" vertex="1">
          <mxGeometry x="1480" y="280" width="120" height="40" as="geometry" />
        </mxCell>
        <mxCell id="Mb5zyB3T2CtG6zJr2Mxs-56" value="Metadata Extraction" style="rounded=0;whiteSpace=wrap;html=1;fillColor=#f8cecc;strokeColor=#b85450;fontFamily=Inter;fontSource=https%3A%2F%2Ffonts.googleapis.com%2Fcss%3Ffamily%3DInter;" parent="1" vertex="1">
          <mxGeometry x="1480" y="240" width="120" height="40" as="geometry" />
        </mxCell>
        <mxCell id="Mb5zyB3T2CtG6zJr2Mxs-116" style="edgeStyle=orthogonalEdgeStyle;rounded=0;orthogonalLoop=1;jettySize=auto;html=1;exitX=0.5;exitY=1;exitDx=0;exitDy=0;fontFamily=Inter;fontSource=https%3A%2F%2Ffonts.googleapis.com%2Fcss%3Ffamily%3DInter;fontColor=#FFFFFF;strokeColor=#FFFFFF;strokeWidth=3;" parent="1" source="Mb5zyB3T2CtG6zJr2Mxs-57" edge="1">
          <mxGeometry relative="1" as="geometry">
            <mxPoint x="1540" y="200" as="targetPoint" />
          </mxGeometry>
        </mxCell>
        <mxCell id="Mb5zyB3T2CtG6zJr2Mxs-57" value="Music Player App" style="rounded=0;whiteSpace=wrap;html=1;fillColor=#d5e8d4;strokeColor=#82b366;fontFamily=Inter;fontSource=https%3A%2F%2Ffonts.googleapis.com%2Fcss%3Ffamily%3DInter;" parent="1" vertex="1">
          <mxGeometry x="1480" y="120" width="120" height="40" as="geometry" />
        </mxCell>
        <mxCell id="Mb5zyB3T2CtG6zJr2Mxs-61" value="File Store" style="rounded=0;whiteSpace=wrap;html=1;fillColor=#dae8fc;strokeColor=#6c8ebf;fontFamily=Inter;fontSource=https%3A%2F%2Ffonts.googleapis.com%2Fcss%3Ffamily%3DInter;" parent="1" vertex="1">
          <mxGeometry x="1080" y="640" width="120" height="40" as="geometry" />
        </mxCell>
        <mxCell id="Mb5zyB3T2CtG6zJr2Mxs-62" value="File Store" style="rounded=0;whiteSpace=wrap;html=1;fillColor=#dae8fc;strokeColor=#6c8ebf;fontFamily=Inter;fontSource=https%3A%2F%2Ffonts.googleapis.com%2Fcss%3Ffamily%3DInter;" parent="1" vertex="1">
          <mxGeometry x="1280" y="640" width="120" height="40" as="geometry" />
        </mxCell>
        <mxCell id="Mb5zyB3T2CtG6zJr2Mxs-63" value="File Store" style="rounded=0;whiteSpace=wrap;html=1;fillColor=#dae8fc;strokeColor=#6c8ebf;fontFamily=Inter;fontSource=https%3A%2F%2Ffonts.googleapis.com%2Fcss%3Ffamily%3DInter;" parent="1" vertex="1">
          <mxGeometry x="1480" y="640" width="120" height="40" as="geometry" />
        </mxCell>
        <mxCell id="Mb5zyB3T2CtG6zJr2Mxs-67" value="" style="endArrow=cross;startArrow=cross;html=1;rounded=0;exitX=1;exitY=0.5;exitDx=0;exitDy=0;entryX=0;entryY=0.5;entryDx=0;entryDy=0;fillColor=#f8cecc;strokeColor=#b85450;strokeWidth=2;startFill=0;endFill=0;fontFamily=Inter;fontSource=https%3A%2F%2Ffonts.googleapis.com%2Fcss%3Ffamily%3DInter;" parent="1" source="Mb5zyB3T2CtG6zJr2Mxs-61" target="Mb5zyB3T2CtG6zJr2Mxs-62" edge="1">
          <mxGeometry width="50" height="50" relative="1" as="geometry">
            <mxPoint x="1200" y="750" as="sourcePoint" />
            <mxPoint x="1280" y="750" as="targetPoint" />
          </mxGeometry>
        </mxCell>
        <mxCell id="Mb5zyB3T2CtG6zJr2Mxs-68" value="" style="endArrow=cross;startArrow=cross;html=1;rounded=0;exitX=1;exitY=0.5;exitDx=0;exitDy=0;fillColor=#f8cecc;strokeColor=#b85450;strokeWidth=2;startFill=0;endFill=0;fontFamily=Inter;fontSource=https%3A%2F%2Ffonts.googleapis.com%2Fcss%3Ffamily%3DInter;entryX=0;entryY=0.5;entryDx=0;entryDy=0;" parent="1" edge="1" target="Mb5zyB3T2CtG6zJr2Mxs-63" source="Mb5zyB3T2CtG6zJr2Mxs-62">
          <mxGeometry width="50" height="50" relative="1" as="geometry">
            <mxPoint x="1399.9999999999995" y="750" as="sourcePoint" />
            <mxPoint x="1480" y="750" as="targetPoint" />
          </mxGeometry>
        </mxCell>
        <mxCell id="Mb5zyB3T2CtG6zJr2Mxs-69" value="" style="endArrow=cross;startArrow=cross;html=1;rounded=0;entryX=0;entryY=0.5;entryDx=0;entryDy=0;fillColor=#f8cecc;strokeColor=#b85450;strokeWidth=2;startFill=0;endFill=0;fontFamily=Inter;fontSource=https%3A%2F%2Ffonts.googleapis.com%2Fcss%3Ffamily%3DInter;exitX=1;exitY=0.5;exitDx=0;exitDy=0;" parent="1" source="Mb5zyB3T2CtG6zJr2Mxs-121" target="Mb5zyB3T2CtG6zJr2Mxs-120" edge="1">
          <mxGeometry width="50" height="50" relative="1" as="geometry">
            <mxPoint x="1450" y="620" as="sourcePoint" />
            <mxPoint x="1534" y="620" as="targetPoint" />
          </mxGeometry>
        </mxCell>
        <mxCell id="Mb5zyB3T2CtG6zJr2Mxs-70" value="" style="endArrow=cross;startArrow=cross;html=1;rounded=0;entryX=0;entryY=0.5;entryDx=0;entryDy=0;fillColor=#f8cecc;strokeColor=#b85450;strokeWidth=2;startFill=0;endFill=0;fontFamily=Inter;fontSource=https%3A%2F%2Ffonts.googleapis.com%2Fcss%3Ffamily%3DInter;exitX=1;exitY=0.5;exitDx=0;exitDy=0;" parent="1" source="Mb5zyB3T2CtG6zJr2Mxs-122" edge="1" target="Mb5zyB3T2CtG6zJr2Mxs-121">
          <mxGeometry width="50" height="50" relative="1" as="geometry">
            <mxPoint x="1250" y="620" as="sourcePoint" />
            <mxPoint x="1334" y="620" as="targetPoint" />
          </mxGeometry>
        </mxCell>
        <mxCell id="Mb5zyB3T2CtG6zJr2Mxs-88" value="&lt;div&gt;&lt;b&gt;MOWS Cloud APIs&lt;/b&gt;&lt;/div&gt;" style="text;html=1;align=center;verticalAlign=middle;whiteSpace=wrap;rounded=0;fontFamily=Inter;fontSource=https%3A%2F%2Ffonts.googleapis.com%2Fcss%3Ffamily%3DInter;" parent="1" vertex="1">
          <mxGeometry x="1179" y="1049" width="69" height="30" as="geometry" />
        </mxCell>
        <mxCell id="Mb5zyB3T2CtG6zJr2Mxs-110" style="edgeStyle=orthogonalEdgeStyle;rounded=0;orthogonalLoop=1;jettySize=auto;html=1;exitX=0.5;exitY=1;exitDx=0;exitDy=0;entryX=0.5;entryY=0;entryDx=0;entryDy=0;fontFamily=Inter;fontSource=https%3A%2F%2Ffonts.googleapis.com%2Fcss%3Ffamily%3DInter;fontColor=#FFFFFF;strokeColor=#FFFFFF;strokeWidth=3;" parent="1" source="Mb5zyB3T2CtG6zJr2Mxs-95" target="9ROWvACtDVGKVb09vTlz-20" edge="1">
          <mxGeometry relative="1" as="geometry" />
        </mxCell>
        <mxCell id="Mb5zyB3T2CtG6zJr2Mxs-95" value="Photo Mangement App" style="rounded=0;whiteSpace=wrap;html=1;fillColor=#d5e8d4;strokeColor=#82b366;fontFamily=Inter;fontSource=https%3A%2F%2Ffonts.googleapis.com%2Fcss%3Ffamily%3DInter;" parent="1" vertex="1">
          <mxGeometry x="1080" y="770" width="120" height="40" as="geometry" />
        </mxCell>
        <mxCell id="Mb5zyB3T2CtG6zJr2Mxs-111" style="edgeStyle=orthogonalEdgeStyle;rounded=0;orthogonalLoop=1;jettySize=auto;html=1;exitX=0.5;exitY=1;exitDx=0;exitDy=0;fontFamily=Inter;fontSource=https%3A%2F%2Ffonts.googleapis.com%2Fcss%3Ffamily%3DInter;fontColor=#FFFFFF;strokeColor=#FFFFFF;entryX=0.5;entryY=0;entryDx=0;entryDy=0;strokeWidth=3;" parent="1" source="Mb5zyB3T2CtG6zJr2Mxs-96" edge="1" target="9ROWvACtDVGKVb09vTlz-20">
          <mxGeometry relative="1" as="geometry">
            <mxPoint x="1279.666666666667" y="850.0000000000001" as="targetPoint" />
          </mxGeometry>
        </mxCell>
        <mxCell id="Mb5zyB3T2CtG6zJr2Mxs-96" value="Video Streaming App" style="rounded=0;whiteSpace=wrap;html=1;fillColor=#d5e8d4;strokeColor=#82b366;fontFamily=Inter;fontSource=https%3A%2F%2Ffonts.googleapis.com%2Fcss%3Ffamily%3DInter;" parent="1" vertex="1">
          <mxGeometry x="1280" y="770" width="120" height="40" as="geometry" />
        </mxCell>
        <mxCell id="Mb5zyB3T2CtG6zJr2Mxs-112" style="edgeStyle=orthogonalEdgeStyle;rounded=0;orthogonalLoop=1;jettySize=auto;html=1;exitX=0.5;exitY=1;exitDx=0;exitDy=0;entryX=0.5;entryY=0;entryDx=0;entryDy=0;fontFamily=Inter;fontSource=https%3A%2F%2Ffonts.googleapis.com%2Fcss%3Ffamily%3DInter;fontColor=#FFFFFF;strokeColor=#FFFFFF;strokeWidth=3;" parent="1" source="Mb5zyB3T2CtG6zJr2Mxs-97" target="9ROWvACtDVGKVb09vTlz-20" edge="1">
          <mxGeometry relative="1" as="geometry">
            <mxPoint x="1286" y="850.0000000000001" as="targetPoint" />
          </mxGeometry>
        </mxCell>
        <mxCell id="Mb5zyB3T2CtG6zJr2Mxs-97" value="Music Player App" style="rounded=0;whiteSpace=wrap;html=1;fillColor=#d5e8d4;strokeColor=#82b366;fontFamily=Inter;fontSource=https%3A%2F%2Ffonts.googleapis.com%2Fcss%3Ffamily%3DInter;" parent="1" vertex="1">
          <mxGeometry x="1480" y="770" width="120" height="40" as="geometry" />
        </mxCell>
        <mxCell id="Mb5zyB3T2CtG6zJr2Mxs-100" value="Auth" style="rounded=0;whiteSpace=wrap;html=1;fillColor=#e1d5e7;strokeColor=#9673a6;fontFamily=Inter;fontSource=https%3A%2F%2Ffonts.googleapis.com%2Fcss%3Ffamily%3DInter;" parent="1" vertex="1">
          <mxGeometry x="1280" y="1200" width="120" height="40" as="geometry" />
        </mxCell>
        <mxCell id="Mb5zyB3T2CtG6zJr2Mxs-101" value="Serving Files" style="rounded=0;whiteSpace=wrap;html=1;fillColor=#e1d5e7;strokeColor=#9673a6;fontFamily=Inter;fontSource=https%3A%2F%2Ffonts.googleapis.com%2Fcss%3Ffamily%3DInter;" parent="1" vertex="1">
          <mxGeometry x="1280" y="1160" width="120" height="40" as="geometry" />
        </mxCell>
        <mxCell id="Mb5zyB3T2CtG6zJr2Mxs-102" value="File Search" style="rounded=0;whiteSpace=wrap;html=1;fillColor=#e1d5e7;strokeColor=#9673a6;fontFamily=Inter;fontSource=https%3A%2F%2Ffonts.googleapis.com%2Fcss%3Ffamily%3DInter;" parent="1" vertex="1">
          <mxGeometry x="1280" y="1120" width="120" height="40" as="geometry" />
        </mxCell>
        <mxCell id="Mb5zyB3T2CtG6zJr2Mxs-103" value="Converting files" style="rounded=0;whiteSpace=wrap;html=1;fillColor=#e1d5e7;strokeColor=#9673a6;fontFamily=Inter;fontSource=https%3A%2F%2Ffonts.googleapis.com%2Fcss%3Ffamily%3DInter;" parent="1" vertex="1">
          <mxGeometry x="1280" y="1080" width="120" height="40" as="geometry" />
        </mxCell>
        <mxCell id="Mb5zyB3T2CtG6zJr2Mxs-104" value="Offline features" style="rounded=0;whiteSpace=wrap;html=1;fillColor=#e1d5e7;strokeColor=#9673a6;fontFamily=Inter;fontSource=https%3A%2F%2Ffonts.googleapis.com%2Fcss%3Ffamily%3DInter;" parent="1" vertex="1">
          <mxGeometry x="1280" y="1040" width="120" height="40" as="geometry" />
        </mxCell>
        <mxCell id="Mb5zyB3T2CtG6zJr2Mxs-105" value="Efficient image loading" style="rounded=0;whiteSpace=wrap;html=1;fillColor=#e1d5e7;strokeColor=#9673a6;fontFamily=Inter;fontSource=https%3A%2F%2Ffonts.googleapis.com%2Fcss%3Ffamily%3DInter;" parent="1" vertex="1">
          <mxGeometry x="1280" y="1000" width="120" height="40" as="geometry" />
        </mxCell>
        <mxCell id="Mb5zyB3T2CtG6zJr2Mxs-106" value="Handling large file lists in the browser" style="rounded=0;whiteSpace=wrap;html=1;fillColor=#e1d5e7;strokeColor=#9673a6;fontFamily=Inter;fontSource=https%3A%2F%2Ffonts.googleapis.com%2Fcss%3Ffamily%3DInter;" parent="1" vertex="1">
          <mxGeometry x="1280" y="960" width="120" height="40" as="geometry" />
        </mxCell>
        <mxCell id="Mb5zyB3T2CtG6zJr2Mxs-107" value="Metadata Extraction" style="rounded=0;whiteSpace=wrap;html=1;fillColor=#e1d5e7;strokeColor=#9673a6;fontFamily=Inter;fontSource=https%3A%2F%2Ffonts.googleapis.com%2Fcss%3Ffamily%3DInter;" parent="1" vertex="1">
          <mxGeometry x="1280" y="920" width="120" height="40" as="geometry" />
        </mxCell>
        <mxCell id="Mb5zyB3T2CtG6zJr2Mxs-108" value="File Store" style="rounded=0;whiteSpace=wrap;html=1;fillColor=#DCEBFF;strokeColor=#6c8ebf;fontFamily=Inter;fontSource=https%3A%2F%2Ffonts.googleapis.com%2Fcss%3Ffamily%3DInter;" parent="1" vertex="1">
          <mxGeometry x="1280" y="1280" width="120" height="40" as="geometry" />
        </mxCell>
        <mxCell id="Mb5zyB3T2CtG6zJr2Mxs-113" value="Database" style="rounded=0;whiteSpace=wrap;html=1;fillColor=#DCEBFF;strokeColor=#6c8ebf;fontFamily=Inter;fontSource=https%3A%2F%2Ffonts.googleapis.com%2Fcss%3Ffamily%3DInter;" parent="1" vertex="1">
          <mxGeometry x="1280" y="1240" width="120" height="40" as="geometry" />
        </mxCell>
        <mxCell id="Mb5zyB3T2CtG6zJr2Mxs-120" value="Database" style="rounded=0;whiteSpace=wrap;html=1;fillColor=#dae8fc;strokeColor=#6c8ebf;fontFamily=Inter;fontSource=https%3A%2F%2Ffonts.googleapis.com%2Fcss%3Ffamily%3DInter;" parent="1" vertex="1">
          <mxGeometry x="1480" y="600" width="120" height="40" as="geometry" />
        </mxCell>
        <mxCell id="Mb5zyB3T2CtG6zJr2Mxs-121" value="Database" style="rounded=0;whiteSpace=wrap;html=1;fillColor=#dae8fc;strokeColor=#6c8ebf;fontFamily=Inter;fontSource=https%3A%2F%2Ffonts.googleapis.com%2Fcss%3Ffamily%3DInter;" parent="1" vertex="1">
          <mxGeometry x="1280" y="600" width="120" height="40" as="geometry" />
        </mxCell>
        <mxCell id="Mb5zyB3T2CtG6zJr2Mxs-122" value="Database" style="rounded=0;whiteSpace=wrap;html=1;fillColor=#dae8fc;strokeColor=#6c8ebf;fontFamily=Inter;fontSource=https%3A%2F%2Ffonts.googleapis.com%2Fcss%3Ffamily%3DInter;" parent="1" vertex="1">
          <mxGeometry x="1080" y="600" width="120" height="40" as="geometry" />
        </mxCell>
        <mxCell id="9ROWvACtDVGKVb09vTlz-3" value="&lt;span style=&quot;font-size: 16px;&quot;&gt;Logic you want to implement&lt;/span&gt;" style="text;html=1;align=left;verticalAlign=middle;whiteSpace=wrap;rounded=0;" vertex="1" parent="1">
          <mxGeometry x="890" y="120" width="160" height="40" as="geometry" />
        </mxCell>
        <mxCell id="9ROWvACtDVGKVb09vTlz-5" value="Share Files" style="rounded=0;whiteSpace=wrap;html=1;fillColor=#f8cecc;strokeColor=#b85450;fontFamily=Inter;fontSource=https%3A%2F%2Ffonts.googleapis.com%2Fcss%3Ffamily%3DInter;" vertex="1" parent="1">
          <mxGeometry x="1080" y="200" width="120" height="40" as="geometry" />
        </mxCell>
        <mxCell id="9ROWvACtDVGKVb09vTlz-6" value="Share Files" style="rounded=0;whiteSpace=wrap;html=1;fillColor=#f8cecc;strokeColor=#b85450;fontFamily=Inter;fontSource=https%3A%2F%2Ffonts.googleapis.com%2Fcss%3Ffamily%3DInter;" vertex="1" parent="1">
          <mxGeometry x="1480" y="200" width="120" height="40" as="geometry" />
        </mxCell>
        <mxCell id="9ROWvACtDVGKVb09vTlz-7" value="Share Files" style="rounded=0;whiteSpace=wrap;html=1;fillColor=#f8cecc;strokeColor=#b85450;fontFamily=Inter;fontSource=https%3A%2F%2Ffonts.googleapis.com%2Fcss%3Ffamily%3DInter;" vertex="1" parent="1">
          <mxGeometry x="1280" y="200" width="120" height="40" as="geometry" />
        </mxCell>
        <mxCell id="9ROWvACtDVGKVb09vTlz-8" value="" style="endArrow=cross;startArrow=cross;html=1;rounded=0;entryX=0;entryY=0.5;entryDx=0;entryDy=0;fillColor=#f8cecc;strokeColor=#b85450;strokeWidth=2;startFill=0;endFill=0;fontFamily=Inter;fontSource=https%3A%2F%2Ffonts.googleapis.com%2Fcss%3Ffamily%3DInter;exitX=1;exitY=0.5;exitDx=0;exitDy=0;" edge="1" parent="1">
          <mxGeometry width="50" height="50" relative="1" as="geometry">
            <mxPoint x="1400" y="539.66" as="sourcePoint" />
            <mxPoint x="1480" y="539.66" as="targetPoint" />
          </mxGeometry>
        </mxCell>
        <mxCell id="9ROWvACtDVGKVb09vTlz-9" value="" style="endArrow=cross;startArrow=cross;html=1;rounded=0;entryX=0;entryY=0.5;entryDx=0;entryDy=0;fillColor=#f8cecc;strokeColor=#b85450;strokeWidth=2;startFill=0;endFill=0;fontFamily=Inter;fontSource=https%3A%2F%2Ffonts.googleapis.com%2Fcss%3Ffamily%3DInter;exitX=1;exitY=0.5;exitDx=0;exitDy=0;" edge="1" parent="1">
          <mxGeometry width="50" height="50" relative="1" as="geometry">
            <mxPoint x="1201" y="539.66" as="sourcePoint" />
            <mxPoint x="1281" y="539.66" as="targetPoint" />
          </mxGeometry>
        </mxCell>
        <mxCell id="9ROWvACtDVGKVb09vTlz-10" value="&lt;span style=&quot;font-size: 16px;&quot;&gt;Logic you need to implement&lt;/span&gt;" style="text;html=1;align=left;verticalAlign=middle;whiteSpace=wrap;rounded=0;" vertex="1" parent="1">
          <mxGeometry x="890" y="360" width="160" height="40" as="geometry" />
        </mxCell>
        <mxCell id="9ROWvACtDVGKVb09vTlz-13" value="&lt;span style=&quot;font-size: 16px;&quot;&gt;Desync&lt;/span&gt;" style="text;html=1;align=center;verticalAlign=middle;whiteSpace=wrap;rounded=0;" vertex="1" parent="1">
          <mxGeometry x="1211" y="630" width="59" height="20" as="geometry" />
        </mxCell>
        <mxCell id="9ROWvACtDVGKVb09vTlz-15" value="&lt;span style=&quot;font-size: 16px;&quot;&gt;Desync&lt;/span&gt;" style="text;html=1;align=center;verticalAlign=middle;whiteSpace=wrap;rounded=0;" vertex="1" parent="1">
          <mxGeometry x="1410" y="630" width="59" height="20" as="geometry" />
        </mxCell>
        <mxCell id="9ROWvACtDVGKVb09vTlz-20" value="Share Files" style="rounded=0;whiteSpace=wrap;html=1;fillColor=#e1d5e7;strokeColor=#9673a6;fontFamily=Inter;fontSource=https%3A%2F%2Ffonts.googleapis.com%2Fcss%3Ffamily%3DInter;" vertex="1" parent="1">
          <mxGeometry x="1280" y="880" width="120" height="40" as="geometry" />
        </mxCell>
        <mxCell id="9ROWvACtDVGKVb09vTlz-22" value="&lt;span style=&quot;font-size: 16px;&quot;&gt;Different&lt;/span&gt;&lt;div&gt;&lt;span style=&quot;font-size: 16px;&quot;&gt;Login&lt;/span&gt;&lt;/div&gt;" style="text;html=1;align=center;verticalAlign=middle;whiteSpace=wrap;rounded=0;" vertex="1" parent="1">
          <mxGeometry x="1210.5" y="510" width="59" height="20" as="geometry" />
        </mxCell>
        <mxCell id="9ROWvACtDVGKVb09vTlz-23" value="&lt;span style=&quot;font-size: 16px;&quot;&gt;Different&lt;/span&gt;&lt;div&gt;&lt;span style=&quot;font-size: 16px;&quot;&gt;Login&lt;/span&gt;&lt;/div&gt;" style="text;html=1;align=center;verticalAlign=middle;whiteSpace=wrap;rounded=0;" vertex="1" parent="1">
          <mxGeometry x="1410" y="510" width="59" height="20" as="geometry" />
        </mxCell>
        <mxCell id="9ROWvACtDVGKVb09vTlz-25" value="&lt;span style=&quot;font-size: 16px;&quot;&gt;Logic implemented by the OS&lt;/span&gt;" style="text;html=1;align=left;verticalAlign=middle;whiteSpace=wrap;rounded=0;" vertex="1" parent="1">
          <mxGeometry x="890" y="620" width="160" height="40" as="geometry" />
        </mxCell>
        <mxCell id="9ROWvACtDVGKVb09vTlz-26" value="&lt;span style=&quot;font-size: 16px;&quot;&gt;Logic implemented by the OS&lt;/span&gt;" style="text;html=1;align=left;verticalAlign=middle;whiteSpace=wrap;rounded=0;" vertex="1" parent="1">
          <mxGeometry x="890" y="1070" width="160" height="40" as="geometry" />
        </mxCell>
      </root>
    </mxGraphModel>
  </diagram>
</mxfile>
